# xmcd CD database file
#
# Track frame offsets:
#	150
#	13312
#	27930
#	41070
#	52442
#	64180
#	80555
#	101360
#	131830
#	153385
#	178607
#	208512
#	231435
#	254877
#	280822
#
# Disc length: 3959 seconds
#
# Revision: 0
# Processed by: cddbd v1.4PL0 Copyright (c) Steve Scherf et al.
# Submitted via: CDex 1.50
#
DISCID=e40f750f
DTITLE=Various Artist - 75 Years with Jazz in Denmark - An Anthology in Sound 
DYEAR=1999
DGENRE=Jazz
TTITLE0=Valdemar Eilberg and his Orchestra - I've Got A Cross-Eyed Papa
TTITLE1=Erik Tuxen and his Orchestra - New York
TTITLE2=Kai Ewans and his Orchestra - Murder In The Madhouse
TTITLE3=Leo Mathisen's Orchestra - Call it What You Like
TTITLE4=Jorgen Ryg Quartet - Serenade T.D.P.J.I.H.M.
TTITLE5=Papa Bue's Viking JazzBand - Jungle Jamboree
TTITLE6=Six Winds - Upright Heaven
TTITLE7=Jan Kaspersen Quintet feat. Finn Ziegler - Nice, Clean, Shaved and Sober
TTITLE8=Niels Henning Orsted  pedersen and The Danish Radio Jazz Orchestra - Future Child, Elephant March
TTITLE9=Palle Mikkelborg - The Naked Facts
TTITLE10=Jesper Thilo, Thomas Clausen, Mads Vinding - Rabbits Nest
TTITLE11=Niels Jorgen Steen's A-Team - Mr. Jordan
TTITLE12=Svend Asmussen Quartet - Columbine Polka Mazurka
TTITLE13=John Tchicai, Clinch - Fri, Frei, Libre II
TTITLE14=Pierre Dorge and New Jungle Orchestra - Giraf
EXTD=YEAR: 1999
EXTT0=
EXTT1=
EXTT2=
EXTT3=
EXTT4=
EXTT5=
EXTT6=
EXTT7=
EXTT8=
EXTT9=
EXTT10=
EXTT11=
EXTT12=
EXTT13=
EXTT14=
PLAYORDER=
